# xmcd
#
# Track frame offsets: 
#        151
#        16079
#        28398
#        42408
#        57222
#        72410
#        87221
#        101665
#        116010
#        130051
#        145046
#        158073
#        171020
#        184018
#        198533
#        212078
#        226638
#        240660
#        255088
#        269660
#        284533
#        299231
#        313600
#        328420
#
# Disc length: 4584 seconds
#
# Revision: 0
# Processed by: cddbd v1.5.2PL0 Copyright (c) Steve Scherf et al.
# Submitted via: ExactAudioCopy v0.95b4
#
DISCID=6811e618
DTITLE=Various Artist - Texas Blues - Box - CD5
DYEAR=2007
DGENRE=Blues
TTITLE0=Long Distance Moan - Blind Lemon Jefferson
TTITLE1=That Crawlin' Baby Blues - Blind Lemon Jefferson
TTITLE2=Fence Breakin' Yellin' Blues - Blind Lemon Jefferson
TTITLE3=Cat Man Blues - Blind Lemon Jefferson
TTITLE4=Cheaters Spell - Blind Lemon Jefferson
TTITLE5=Bootin' Me 'bout - Blind Lemon Jefferson
TTITLE6=Trinity River Blues - Oak Cliff T-Bone
TTITLE7=Wichita Falls Blues - Oak Cliff T-Bone
TTITLE8=Dreaming Blues - Willie Reed
TTITLE9=Texas Blues - Willie Reed
TTITLE10=Leavin' Home - Willie Reed
TTITLE11=Goin' Back To My Baby - Willie Reed
TTITLE12=Some Low Down Groundhog Blues - Willie Reed
TTITLE13=All Worn Out And Dry Blues - Willie Reed
TTITLE14=New Two Sixteen Blues - Little Hat Jones
TTITLE15=Two String Blues - Little Hat Jones
TTITLE16=Rolled From Side To Side Blues - Little Hat Jones
TTITLE17=Hurry Blues - Little Hat Jones
TTITLE18=Little Hat Blues - Little Hat Jones
TTITLE19=Corpus Blues - Little Hat Jones
TTITLE20=Kentucky Blues - Little Hat Jones
TTITLE21=Bye Bye Baby Blues - Little Hat Jones
TTITLE22=Cross The Water Blues - Little Hat Jones
TTITLE23=Cherry Street Blues - Little Hat Jones
EXTD=
EXTT0=
EXTT1=
EXTT2=
EXTT3=
EXTT4=
EXTT5=
EXTT6=
EXTT7=
EXTT8=
EXTT9=
EXTT10=
EXTT11=
EXTT12=
EXTT13=
EXTT14=
EXTT15=
EXTT16=
EXTT17=
EXTT18=
EXTT19=
EXTT20=
EXTT21=
EXTT22=
EXTT23=
PLAYORDER=
